<svg xmlns="http://www.w3.org/2000/svg" viewBox="0 0 1920 408.66">
  <defs>
    <style>
      .cls-1 {
        fill: #f24800;
      }

      .cls-2 {
        fill: #282828;
      }
    </style>
  </defs>
  <g id="Layer_2" data-name="Layer 2">
    <g id="Layer_1-2" data-name="Layer 1">
      <g>
        <g>
          <path class="cls-1" d="M166.44,305.25h-1a33.45,33.45,0,0,1-24.71-12.05L65.8,216.11C11.15,159.9,11.17,92,65.84,38.8c28.1-27.32,60.24-40.65,93-38.59,30.26,1.91,59.55,16.6,84.72,42.49L319,120.28A7,7,0,0,1,309,130L233.58,52.43c-22.71-23.37-48.86-36.62-75.6-38.3C129.28,12.3,100.76,24.3,75.57,48.8c-49.25,47.88-49.16,106.79.23,157.59l75.54,77.74a19.48,19.48,0,0,0,14.51,7.17c5.14.07,9.78-1.66,12.82-5a16.56,16.56,0,0,0,4-12.23,19.41,19.41,0,0,0-6.86-13.67l-.48-.45L101,183.57c-16.27-16.73-25-35.44-25.37-54.08-.34-19.38,8.46-38.36,25.47-54.89,34.32-33.37,75.15-32.36,109.22,2.69l24.5,25.19,8.08,8.32,17.22,17.7c.24.26,24.22,24.91,24.5,25.21a7,7,0,1,1-10,9.69l-24.45-25.15-17.24-17.73-8.19-8.43L200.34,87c-28.4-29.22-61-30.1-89.5-2.41-14.38,14-21.52,29-21.25,44.64.27,15,7.68,30.46,21.43,44.61L185.08,250a33.12,33.12,0,0,1,11.49,23.21,29.4,29.4,0,0,1-30.13,32Z"/>
          <path class="cls-1" d="M168.72,402.6q-3.3,0-6.61-.21c-30.25-1.91-59.55-16.6-84.72-42.49L2,282.32a7,7,0,1,1,10-9.72l75.42,77.57c22.72,23.37,48.86,36.61,75.61,38.3,28.64,1.78,57.21-10.18,82.41-34.67,49.24-47.88,49.16-106.79-.23-157.59l-75.54-77.74a19.47,19.47,0,0,0-14.52-7.16,15.5,15.5,0,0,0-16.79,17.19,19.34,19.34,0,0,0,6.86,13.67l.48.45L220,219c16.27,16.74,25.05,35.44,25.38,54.08.34,19.38-8.47,38.36-25.47,54.89S183.47,353.06,164,352.17c-18.65-.82-37.11-10.1-53.4-26.85l-24.49-25.2-25.3-26L36.36,248.92a7,7,0,1,1,10-9.74l24.53,25.21C83,276.92,95.74,290,96.11,290.37l24.52,25.23c13.76,14.15,29,22,44,22.64,15.75.64,31-6.13,45.49-20.23s21.53-29,21.25-44.65c-.26-15-7.67-30.46-21.42-44.61l-74.07-76.18a33.24,33.24,0,0,1-11.49-23.21,29.44,29.44,0,0,1,31.14-32,33.4,33.4,0,0,1,24.7,12l74.94,77.08c54.65,56.21,54.63,124.15-.05,177.31C228.93,389.28,199.18,402.6,168.72,402.6Z"/>
        </g>
        <g>
          <path class="cls-2" d="M655.54,197.06a49.3,49.3,0,0,0,6.56-16.48,88.63,88.63,0,0,0,1.7-17.71,139.27,139.27,0,0,0-1-17A48.17,48.17,0,0,0,658,129.74a42.28,42.28,0,0,0-10.77-13.23,54.76,54.76,0,0,0-17.82-9.3,127.35,127.35,0,0,0-25-5.1,304,304,0,0,0-34.17-1.66H537.88c-10.26,0-19.19-.22-26.54-.66a132.42,132.42,0,0,1-18-2.11,42,42,0,0,1-10.5-3.31,12.5,12.5,0,0,1-4.51-3.58,11.78,11.78,0,0,1-2-5,54.75,54.75,0,0,1-.72-9.45c0-5.25.84-9.54,2.5-12.75,1.39-2.68,4.18-5,8.28-6.79,5.08-2.26,12.33-3.91,21.56-4.91a362.58,362.58,0,0,1,37.84-1.61h23.53c11.53,0,21.32.26,29.12.78,7,.47,12.66,1.57,16.68,3.28a12,12,0,0,1,6.42,5.53c1,2,2.28,6.05,2.28,13.53v8.26h40V73.41a89,89,0,0,0-1.64-17.7,45,45,0,0,0-6.4-15.82,42.4,42.4,0,0,0-12.45-12.2,67.9,67.9,0,0,0-18.08-7.87,136.29,136.29,0,0,0-24.29-4.33c-9.05-.88-19.71-1.33-31.69-1.33H545.72c-14.58,0-27.47.55-38.33,1.64a175.52,175.52,0,0,0-28.64,5,76,76,0,0,0-20.85,8.81,48.64,48.64,0,0,0-13.68,12.8,43.69,43.69,0,0,0-7,16.35,86.14,86.14,0,0,0-1.71,17.62,120,120,0,0,0,1.06,16.4,44.2,44.2,0,0,0,5.21,15.72,40.35,40.35,0,0,0,11.89,12.9c5,3.56,11.25,6.41,19.18,8.69a160,160,0,0,0,27.24,4.88,374.32,374.32,0,0,0,37.81,1.64h32.35a235.06,235.06,0,0,1,30.63,1.59c6.95,1,12.25,2.48,15.73,4.54a11.18,11.18,0,0,1,5.33,6.16,44.44,44.44,0,0,1,1.83,14c0,5.4-.84,9.92-2.51,13.44-1.44,3-4,5.5-7.83,7.55-4.52,2.41-10.91,4.23-19,5.4a237,237,0,0,1-33,1.89H530c-11.55,0-21.32-.26-29-.79-7-.47-12.57-1.59-16.59-3.32a12,12,0,0,1-6.43-5.65c-1.06-2.1-2.31-6.2-2.31-13.85v-8.26H435.61v8.26a89.84,89.84,0,0,0,1.64,17.75,44.85,44.85,0,0,0,6.39,15.89,44.12,44.12,0,0,0,12.27,12.24,64.2,64.2,0,0,0,18.15,8.08,139.91,139.91,0,0,0,24.25,4.38,316.54,316.54,0,0,0,31.72,1.4h31.38a300,300,0,0,0,35.25-1.83,141.32,141.32,0,0,0,26.65-5.54,70.78,70.78,0,0,0,19.43-9.46A48.81,48.81,0,0,0,655.54,197.06Z"/>
          <polygon class="cls-2" points="839.67 222.86 839.67 139.49 956.74 18.09 902.35 18.09 819.64 106.39 736.94 18.09 682.55 18.09 799.62 139.49 799.62 222.86 839.67 222.86"/>
          <path class="cls-2" d="M1188.44,197.06a49.3,49.3,0,0,0,6.56-16.48,89.38,89.38,0,0,0,1.7-17.71,137.22,137.22,0,0,0-1-17,48.16,48.16,0,0,0-4.83-16.11,42.28,42.28,0,0,0-10.77-13.23,54.76,54.76,0,0,0-17.82-9.3,127.35,127.35,0,0,0-25-5.1,304,304,0,0,0-34.17-1.66h-32.35c-10.26,0-19.19-.22-26.54-.66a132.42,132.42,0,0,1-18-2.11,41.89,41.89,0,0,1-10.5-3.31,12.5,12.5,0,0,1-4.51-3.58,11.78,11.78,0,0,1-2-5,54.75,54.75,0,0,1-.72-9.45c0-5.25.84-9.54,2.5-12.75,1.39-2.68,4.18-5,8.28-6.79,5.07-2.26,12.33-3.91,21.56-4.91a362.58,362.58,0,0,1,37.84-1.61h23.53c11.52,0,21.32.26,29.12.78,7,.47,12.66,1.57,16.68,3.28a12,12,0,0,1,6.41,5.53c1.05,2,2.29,6.05,2.29,13.53v8.26h40V73.41a89,89,0,0,0-1.64-17.7,45,45,0,0,0-6.4-15.82,42.4,42.4,0,0,0-12.45-12.2,67.9,67.9,0,0,0-18.08-7.87,136.29,136.29,0,0,0-24.29-4.33c-9-.88-19.71-1.33-31.69-1.33h-23.53c-14.58,0-27.47.55-38.33,1.64a175.32,175.32,0,0,0-28.64,5,76,76,0,0,0-20.85,8.81,48.68,48.68,0,0,0-13.69,12.8,44,44,0,0,0-7,16.35,86.86,86.86,0,0,0-1.7,17.62,118.44,118.44,0,0,0,1.06,16.4,44.2,44.2,0,0,0,5.21,15.72,40.35,40.35,0,0,0,11.89,12.9c5,3.56,11.25,6.41,19.18,8.69a160,160,0,0,0,27.24,4.88,374.32,374.32,0,0,0,37.81,1.64h32.35a234.78,234.78,0,0,1,30.62,1.59c7,1,12.26,2.48,15.74,4.54a11.18,11.18,0,0,1,5.33,6.16,44.44,44.44,0,0,1,1.83,14c0,5.4-.84,9.92-2.51,13.44-1.44,3-4,5.5-7.83,7.55-4.52,2.41-10.91,4.23-19,5.4a237,237,0,0,1-33,1.89h-31.38c-11.55,0-21.32-.26-29-.79-7-.47-12.57-1.59-16.59-3.32a12,12,0,0,1-6.43-5.65c-1.06-2.1-2.31-6.2-2.31-13.85v-8.26h-40v8.26a90.63,90.63,0,0,0,1.63,17.75,45.05,45.05,0,0,0,6.4,15.89,44.12,44.12,0,0,0,12.27,12.24A64.2,64.2,0,0,0,1007,221.5a139.91,139.91,0,0,0,24.25,4.38,316.4,316.4,0,0,0,31.72,1.4h31.38a300,300,0,0,0,35.25-1.83,141.32,141.32,0,0,0,26.65-5.54,70.92,70.92,0,0,0,19.43-9.46A48.81,48.81,0,0,0,1188.44,197.06Z"/>
          <polygon class="cls-2" points="1225.12 54.21 1319.25 54.21 1319.25 222.86 1359.29 222.86 1359.29 54.21 1453.42 54.21 1453.42 18.09 1225.12 18.09 1225.12 54.21"/>
          <polygon class="cls-2" points="1690.95 186.74 1526.22 186.74 1526.22 136.58 1683.11 136.58 1683.11 100.45 1526.22 100.45 1526.22 54.21 1690.95 54.21 1690.95 18.09 1486.17 18.09 1486.17 222.86 1690.95 222.86 1690.95 186.74"/>
          <polygon class="cls-2" points="1770.96 186.74 1770.96 18.09 1730.91 18.09 1730.91 222.86 1920 222.86 1920 186.74 1770.96 186.74"/>
        </g>
        <g>
          <path class="cls-2" d="M492.8,363.51H458l-6.15,19.95H429.51l31.49-90h29.7l31.35,90H499ZM463,347.76h24.9l-3.45-11.1c-2.55-8.1-4.95-16.5-7-24.6h-3.6c-2.25,8.1-4.8,16.5-7.35,24.6Z"/>
          <path class="cls-2" d="M548.3,383.46H527.9v-71.1h20v19.05h1.35c4.2-13.8,12.9-21,24-21,13.65,0,20.55,9.45,20.55,24.9v48.15h-20.4V341c0-7.2-3.3-12.15-10.8-12.15-8.7,0-14.25,6.15-14.25,15Z"/>
          <path class="cls-2" d="M600.51,407.61l3-17.25a47.65,47.65,0,0,0,9.16,1.05c7.19,0,10.94-1.35,14.24-8.85l-26.69-70.2h22.34l7.05,26.1c2.1,8,4.65,17.1,6.9,25.8h2.55c2.25-8.85,4.65-17.7,6.45-25.35l6.6-26.55H674l-28,71.4c-6.9,17.4-15.9,24.9-33.74,24.9A64.87,64.87,0,0,1,600.51,407.61Z"/>
          <path class="cls-1" d="M728.3,383.46H708.35v-90h35.1l11.25,34.8c1.8,5.7,4.95,17.1,7.5,27.75h2.55c2.4-10.65,5.4-22.2,7.5-28.5l11.25-34.05h32.4v90H794.3V345.81c0-10.95.6-24,.9-34.8H793c-3,11.7-6.75,25.35-11.25,38.7l-10.5,29h-20l-10-29.55c-4.5-14.1-8-26.7-10.8-38.1h-2.25c.15,10.95.15,23.7.15,34.8Z"/>
          <path class="cls-1" d="M831.05,302.31v-14.7h21.3v14.7Zm.45,81.15v-71.1h20.4v71.1Z"/>
          <path class="cls-1" d="M862.7,363.06l18.3-3.75c1.8,7.8,6.6,11.85,15.45,11.85,6.9,0,10.35-2.25,10.5-6.9,0-4.35-2.85-6.75-15.9-9.3-19.5-4.2-26.1-10.65-26.1-22.8,0-13.65,9.75-21.75,29.85-21.75,20.7,0,27.45,8.1,30,20.55l-18.15,3.75c-1.65-7.35-4.95-10.2-12.3-10.2-6.75,0-10.05,2.25-10.05,6.45,0,3.9,2,6.75,14.7,9.3,22.2,4.65,27.6,12,27.6,23.1,0,13.8-9.15,22.2-30.6,22.2C872,385.56,864.65,376,862.7,363.06Z"/>
          <path class="cls-1" d="M933.05,363.06l18.3-3.75c1.8,7.8,6.6,11.85,15.45,11.85,6.9,0,10.35-2.25,10.5-6.9,0-4.35-2.85-6.75-15.9-9.3-19.5-4.2-26.1-10.65-26.1-22.8,0-13.65,9.75-21.75,29.85-21.75,20.7,0,27.45,8.1,30,20.55L977,334.71c-1.65-7.35-5-10.2-12.3-10.2-6.75,0-10.05,2.25-10.05,6.45,0,3.9,2,6.75,14.7,9.3,22.2,4.65,27.6,12,27.6,23.1,0,13.8-9.15,22.2-30.6,22.2C942.35,385.56,935,376,933.05,363.06Z"/>
          <path class="cls-1" d="M1007.75,302.31v-14.7h21.3v14.7Zm.45,81.15v-71.1h20.4v71.1Z"/>
          <path class="cls-1" d="M1040.15,347.91c0-23.7,14.1-37.5,36.75-37.5,22.2,0,36.45,13.8,36.45,37.5,0,23.4-13.8,37.65-36.45,37.65C1053.8,385.56,1040.15,371.31,1040.15,347.91Zm20.4-.15c0,12.9,4.65,20.4,16.2,20.4s16.2-7.5,16.2-20.4-5-20.25-16.2-20.25S1060.55,334.86,1060.55,347.76Z"/>
          <path class="cls-1" d="M1144.7,383.46h-20.4v-71.1h20v19.05h1.35c4.2-13.8,12.9-21,24-21,13.65,0,20.55,9.45,20.55,24.9v48.15h-20.4V341c0-7.2-3.3-12.15-10.8-12.15-8.7,0-14.25,6.15-14.25,15Z"/>
          <path class="cls-1" d="M1222.55,362v21.45h-22.2V362Z"/>
          <path class="cls-2" d="M1315.54,363.51h-34.79l-6.15,19.95h-22.35l31.5-90h29.7l31.34,90H1321.7Zm-29.84-15.75h24.9l-3.45-11.1c-2.55-8.1-5-16.5-7.05-24.6h-3.6c-2.25,8.1-4.8,16.5-7.35,24.6Z"/>
          <path class="cls-2" d="M1371.05,383.46h-20.4v-71.1h19.95v19.05H1372c4.2-13.8,12.9-21,24-21,13.64,0,20.54,9.45,20.54,24.9v48.15h-20.4V341c0-7.2-3.3-12.15-10.79-12.15-8.7,0-14.25,6.15-14.25,15Z"/>
          <path class="cls-2" d="M1423.25,407.61l3-17.25a47.54,47.54,0,0,0,9.15,1.05c7.2,0,10.95-1.35,14.25-8.85l-26.7-70.2h22.35l7,26.1c2.1,8,4.65,17.1,6.9,25.8h2.54c2.25-8.85,4.66-17.7,6.46-25.35l6.59-26.55h21.9l-28,71.4c-6.9,17.4-15.89,24.9-33.74,24.9A65,65,0,0,1,1423.25,407.61Z"/>
          <path class="cls-2" d="M1570.39,340.41c1.95,8.85,3.6,17.85,5.1,27.45H1578c1.65-9.15,3.6-17.85,5.55-27.6l5.4-27.9h20.1l-19.65,71.1h-26.7l-6-30.6c-1.5-8.1-2.85-16.5-3.9-25.05h-2.55c-1,8.4-2.55,17.1-3.9,25.05l-5.55,30.6H1514.9l-19.8-71.1h21l6.29,27.9c2.25,9.75,4.2,18.3,5.7,27.6h2.7q2.25-14.17,5-27.45l5.85-28.05h23Z"/>
          <path class="cls-2" d="M1635.79,383.46h-20.4v-96.3h20.4v44.25h1.2c4.2-13.65,12.45-21,24-21,13.5,0,20.25,9.45,20.25,24.9v48.15h-20.4V341c0-7.2-3.45-12.15-10.8-12.15-8.7,0-14.25,6.15-14.25,15Z"/>
          <path class="cls-2" d="M1691.59,349.41c0-24.6,13.35-39,36.45-39,21.9,0,32.25,12.9,32.25,32.55,0,3-.15,5.85-.45,9.6h-48.15c1.2,11.4,6.45,16.5,16.2,16.5,9.6,0,12.6-4.5,14.4-9.9l17.1,4.65c-3.15,12.3-11.4,21.6-31.65,21.6C1706.29,385.41,1691.59,373.56,1691.59,349.41Zm20.25-7.2h29.7c-.3-11.1-5-16.5-14.1-16.5C1718.14,325.71,1712.89,330.51,1711.84,342.21Z"/>
          <path class="cls-2" d="M1771.54,383.46v-71.1h19.35v23.1h1.65c4.5-19.8,10.5-23.85,19.8-23.85h2.1V335h-4.2c-14.25,0-18.3,4.2-18.3,16.8v31.65Z"/>
          <path class="cls-2" d="M1820.74,349.41c0-24.6,13.35-39,36.45-39,21.9,0,32.25,12.9,32.25,32.55,0,3-.15,5.85-.45,9.6h-48.15c1.2,11.4,6.45,16.5,16.2,16.5s12.6-4.5,14.4-9.9l17.1,4.65c-3.15,12.3-11.4,21.6-31.65,21.6C1835.44,385.41,1820.74,373.56,1820.74,349.41Zm20.25-7.2h29.7c-.3-11.1-5-16.5-14.1-16.5S1842,330.51,1841,342.21Z"/>
          <path class="cls-2" d="M1919.29,362v21.45h-22.2V362Z"/>
        </g>
      </g>
    </g>
  </g>
</svg>
